<?xml version="1.0" encoding="UTF-8" standalone="no"?>
<!DOCTYPE svg PUBLIC "-//W3C//DTD SVG 1.1//EN"
 "http://www.w3.org/Graphics/SVG/1.1/DTD/svg11.dtd">
<!-- Generated by graphviz version 2.40.1 (20161225.0304)
 -->
<!-- Title: %0 Pages: 1 -->
<svg width="902pt" height="1176pt"
 viewBox="0.00 0.00 902.35 1176.00" xmlns="http://www.w3.org/2000/svg" xmlns:xlink="http://www.w3.org/1999/xlink">
<g id="graph0" class="graph" transform="scale(1 1) rotate(0) translate(144 1032)">
<title>%0</title>
<polygon fill="#ffffff" stroke="transparent" points="-144,144 -144,-1032 758.3536,-1032 758.3536,144 -144,144"/>
<!-- categories -->
<g id="node1" class="node">
<title>categories</title>
<polygon fill="#4477c9" stroke="transparent" points="8.5,-80 8.5,-158 67.5,-158 67.5,-80 8.5,-80"/>
<polygon fill="#add8e6" stroke="transparent" points="9,-140 9,-158 68,-158 68,-140 9,-140"/>
<polygon fill="none" stroke="#000000" points="9,-140 9,-158 68,-158 68,-140 9,-140"/>
<text text-anchor="start" x="18.0106" y="-146.9" font-family="Times,serif" font-weight="bold" font-style="italic" font-size="9.00" fill="#000000"> categories </text>
<polygon fill="none" stroke="#000000" points="9,-120 9,-140 68,-140 68,-120 9,-120"/>
<text text-anchor="start" x="14" y="-126.9" font-family="Times,serif" font-size="9.00" fill="#000000">name: String</text>
<polygon fill="none" stroke="#000000" points="9,-100 9,-120 68,-120 68,-100 9,-100"/>
<text text-anchor="start" x="13.6326" y="-106.9" font-family="Times,serif" font-size="9.00" fill="#000000">_id: ObjectID</text>
<polygon fill="none" stroke="#000000" points="9,-80 9,-100 68,-100 68,-80 9,-80"/>
<text text-anchor="start" x="14" y="-86.9" font-family="Times,serif" font-size="9.00" fill="#000000">__v: Number</text>
</g>
<!-- products -->
<g id="node6" class="node">
<title>products</title>
<polygon fill="#4477c9" stroke="transparent" points="265.1158,-20 265.1158,-218 347.1158,-218 347.1158,-20 265.1158,-20"/>
<polygon fill="#add8e6" stroke="transparent" points="265.1158,-200 265.1158,-218 347.1158,-218 347.1158,-200 265.1158,-200"/>
<polygon fill="none" stroke="#000000" points="265.1158,-200 265.1158,-218 347.1158,-218 347.1158,-200 265.1158,-200"/>
<text text-anchor="start" x="288.3696" y="-206.9" font-family="Times,serif" font-weight="bold" font-style="italic" font-size="9.00" fill="#000000"> products </text>
<polygon fill="none" stroke="#000000" points="265.1158,-180 265.1158,-200 347.1158,-200 347.1158,-180 265.1158,-180"/>
<text text-anchor="start" x="270.1158" y="-186.9" font-family="Times,serif" font-size="9.00" fill="#000000">name: String</text>
<polygon fill="none" stroke="#000000" points="265.1158,-160 265.1158,-180 347.1158,-180 347.1158,-160 265.1158,-160"/>
<text text-anchor="start" x="270.1158" y="-166.9" font-family="Times,serif" font-size="9.00" fill="#000000">description: String</text>
<polygon fill="none" stroke="#000000" points="265.1158,-140 265.1158,-160 347.1158,-160 347.1158,-140 265.1158,-140"/>
<text text-anchor="start" x="270.1158" y="-146.9" font-family="Times,serif" font-size="9.00" fill="#000000">images: Array</text>
<polygon fill="none" stroke="#000000" points="265.1158,-120 265.1158,-140 347.1158,-140 347.1158,-120 265.1158,-120"/>
<text text-anchor="start" x="270.1158" y="-126.9" font-family="Times,serif" font-size="9.00" fill="#000000">price: Number</text>
<polygon fill="none" stroke="#000000" points="265.1158,-100 265.1158,-120 347.1158,-120 347.1158,-100 265.1158,-100"/>
<text text-anchor="start" x="270.1158" y="-106.9" font-family="Times,serif" font-size="9.00" fill="#000000">category: ObjectID</text>
<polygon fill="none" stroke="#000000" points="265.1158,-80 265.1158,-100 347.1158,-100 347.1158,-80 265.1158,-80"/>
<text text-anchor="start" x="270.0002" y="-86.9" font-family="Times,serif" font-size="9.00" fill="#000000">isFeatured: Boolean</text>
<polygon fill="none" stroke="#000000" points="265.1158,-60 265.1158,-80 347.1158,-80 347.1158,-60 265.1158,-60"/>
<text text-anchor="start" x="270.1158" y="-66.9" font-family="Times,serif" font-size="9.00" fill="#000000">dateCreated: Date</text>
<polygon fill="none" stroke="#000000" points="265.1158,-40 265.1158,-60 347.1158,-60 347.1158,-40 265.1158,-40"/>
<text text-anchor="start" x="270.1158" y="-46.9" font-family="Times,serif" font-size="9.00" fill="#000000">_id: ObjectID</text>
<polygon fill="none" stroke="#000000" points="265.1158,-20 265.1158,-40 347.1158,-40 347.1158,-20 265.1158,-20"/>
<text text-anchor="start" x="270.1158" y="-26.9" font-family="Times,serif" font-size="9.00" fill="#000000">__v: Number</text>
</g>
<!-- categories&#45;&gt;products -->
<g id="edge4" class="edge">
<title>categories:1&#45;&gt;products:4</title>
<path fill="none" stroke="#000000" stroke-dasharray="5,2" d="M68,-110C155.607,-110 177.5088,-110 265.1158,-110"/>
<text text-anchor="middle" x="166.8079" y="-114.2" font-family="Times,serif" font-size="14.00" fill="#000000">categories&#45;products</text>
<text text-anchor="middle" x="260.0625" y="-97.4" font-family="Times,serif" font-size="14.00" fill="#000000">N</text>
<text text-anchor="middle" x="71.5" y="-97.4" font-family="Times,serif" font-size="14.00" fill="#000000">1</text>
</g>
<!-- customers -->
<g id="node2" class="node">
<title>customers</title>
<polygon fill="#4477c9" stroke="transparent" points="3,-500 3,-658 73,-658 73,-500 3,-500"/>
<polygon fill="#add8e6" stroke="transparent" points="3,-640 3,-658 73,-658 73,-640 3,-640"/>
<polygon fill="none" stroke="#000000" points="3,-640 3,-658 73,-658 73,-640 3,-640"/>
<text text-anchor="start" x="17.5057" y="-646.9" font-family="Times,serif" font-weight="bold" font-style="italic" font-size="9.00" fill="#000000"> customers </text>
<polygon fill="none" stroke="#000000" points="3,-620 3,-640 73,-640 73,-620 3,-620"/>
<text text-anchor="start" x="8" y="-626.9" font-family="Times,serif" font-size="9.00" fill="#000000">name: String</text>
<polygon fill="none" stroke="#000000" points="3,-600 3,-620 73,-620 73,-600 3,-600"/>
<text text-anchor="start" x="8" y="-606.9" font-family="Times,serif" font-size="9.00" fill="#000000">email: String</text>
<polygon fill="none" stroke="#000000" points="3,-580 3,-600 73,-600 73,-580 3,-580"/>
<text text-anchor="start" x="7.6295" y="-586.9" font-family="Times,serif" font-size="9.00" fill="#000000">password: String</text>
<polygon fill="none" stroke="#000000" points="3,-560 3,-580 73,-580 73,-560 3,-560"/>
<text text-anchor="start" x="8" y="-566.9" font-family="Times,serif" font-size="9.00" fill="#000000">phone: String</text>
<polygon fill="none" stroke="#000000" points="3,-540 3,-560 73,-560 73,-540 3,-540"/>
<text text-anchor="start" x="8" y="-546.9" font-family="Times,serif" font-size="9.00" fill="#000000">address: String</text>
<polygon fill="none" stroke="#000000" points="3,-520 3,-540 73,-540 73,-520 3,-520"/>
<text text-anchor="start" x="8" y="-526.9" font-family="Times,serif" font-size="9.00" fill="#000000">_id: ObjectID</text>
<polygon fill="none" stroke="#000000" points="3,-500 3,-520 73,-520 73,-500 3,-500"/>
<text text-anchor="start" x="8" y="-506.9" font-family="Times,serif" font-size="9.00" fill="#000000">__v: Number</text>
</g>
<!-- orders -->
<g id="node5" class="node">
<title>orders</title>
<polygon fill="#4477c9" stroke="transparent" points="257.6158,-365 257.6158,-583 354.6158,-583 354.6158,-365 257.6158,-365"/>
<polygon fill="#add8e6" stroke="transparent" points="258.1158,-565 258.1158,-583 355.1158,-583 355.1158,-565 258.1158,-565"/>
<polygon fill="none" stroke="#000000" points="258.1158,-565 258.1158,-583 355.1158,-583 355.1158,-565 258.1158,-565"/>
<text text-anchor="start" x="293.1221" y="-571.9" font-family="Times,serif" font-weight="bold" font-style="italic" font-size="9.00" fill="#000000"> orders </text>
<polygon fill="none" stroke="#000000" points="258.1158,-545 258.1158,-565 355.1158,-565 355.1158,-545 258.1158,-545"/>
<text text-anchor="start" x="263.1158" y="-551.9" font-family="Times,serif" font-size="9.00" fill="#000000">orderItems: Array</text>
<polygon fill="none" stroke="#000000" points="258.1158,-525 258.1158,-545 355.1158,-545 355.1158,-525 258.1158,-525"/>
<text text-anchor="start" x="262.9942" y="-531.9" font-family="Times,serif" font-size="9.00" fill="#000000">shippingAddress: String</text>
<polygon fill="none" stroke="#000000" points="258.1158,-505 258.1158,-525 355.1158,-525 355.1158,-505 258.1158,-505"/>
<text text-anchor="start" x="263.1158" y="-511.9" font-family="Times,serif" font-size="9.00" fill="#000000">address: String</text>
<polygon fill="none" stroke="#000000" points="258.1158,-485 258.1158,-505 355.1158,-505 355.1158,-485 258.1158,-485"/>
<text text-anchor="start" x="263.1158" y="-491.9" font-family="Times,serif" font-size="9.00" fill="#000000">status: String</text>
<polygon fill="none" stroke="#000000" points="258.1158,-465 258.1158,-485 355.1158,-485 355.1158,-465 258.1158,-465"/>
<text text-anchor="start" x="263.1158" y="-471.9" font-family="Times,serif" font-size="9.00" fill="#000000">totalPrice: Number</text>
<polygon fill="none" stroke="#000000" points="258.1158,-445 258.1158,-465 355.1158,-465 355.1158,-445 258.1158,-445"/>
<text text-anchor="start" x="263.1158" y="-451.9" font-family="Times,serif" font-size="9.00" fill="#000000">customer: ObjectID</text>
<polygon fill="none" stroke="#000000" points="258.1158,-425 258.1158,-445 355.1158,-445 355.1158,-425 258.1158,-425"/>
<text text-anchor="start" x="263.1158" y="-431.9" font-family="Times,serif" font-size="9.00" fill="#000000">employee: ObjectID</text>
<polygon fill="none" stroke="#000000" points="258.1158,-405 258.1158,-425 355.1158,-425 355.1158,-405 258.1158,-405"/>
<text text-anchor="start" x="263.1158" y="-411.9" font-family="Times,serif" font-size="9.00" fill="#000000">dateOrdered: Date</text>
<polygon fill="none" stroke="#000000" points="258.1158,-385 258.1158,-405 355.1158,-405 355.1158,-385 258.1158,-385"/>
<text text-anchor="start" x="263.1158" y="-391.9" font-family="Times,serif" font-size="9.00" fill="#000000">_id: ObjectID</text>
<polygon fill="none" stroke="#000000" points="258.1158,-365 258.1158,-385 355.1158,-385 355.1158,-365 258.1158,-365"/>
<text text-anchor="start" x="263.1158" y="-371.9" font-family="Times,serif" font-size="9.00" fill="#000000">__v: Number</text>
</g>
<!-- customers&#45;&gt;orders -->
<g id="edge2" class="edge">
<title>customers:5&#45;&gt;orders:5</title>
<path fill="none" stroke="#000000" stroke-dasharray="5,2" d="M73,-530C161.7698,-530 169.346,-455 258.1158,-455"/>
<text text-anchor="middle" x="166.8079" y="-527.2" font-family="Times,serif" font-size="14.00" fill="#000000">customers&#45;orders</text>
<text text-anchor="middle" x="253.0625" y="-442.4" font-family="Times,serif" font-size="14.00" fill="#000000">N</text>
<text text-anchor="middle" x="76.5" y="-517.4" font-family="Times,serif" font-size="14.00" fill="#000000">1</text>
</g>
<!-- employees -->
<g id="node3" class="node">
<title>employees</title>
<polygon fill="#4477c9" stroke="transparent" points="3,-230 3,-428 73,-428 73,-230 3,-230"/>
<polygon fill="#add8e6" stroke="transparent" points="3,-410 3,-428 73,-428 73,-410 3,-410"/>
<polygon fill="none" stroke="#000000" points="3,-410 3,-428 73,-428 73,-410 3,-410"/>
<text text-anchor="start" x="16.5062" y="-416.9" font-family="Times,serif" font-weight="bold" font-style="italic" font-size="9.00" fill="#000000"> employees </text>
<polygon fill="none" stroke="#000000" points="3,-390 3,-410 73,-410 73,-390 3,-390"/>
<text text-anchor="start" x="8" y="-396.9" font-family="Times,serif" font-size="9.00" fill="#000000">name: String</text>
<polygon fill="none" stroke="#000000" points="3,-370 3,-390 73,-390 73,-370 3,-370"/>
<text text-anchor="start" x="8" y="-376.9" font-family="Times,serif" font-size="9.00" fill="#000000">email: String</text>
<polygon fill="none" stroke="#000000" points="3,-350 3,-370 73,-370 73,-350 3,-350"/>
<text text-anchor="start" x="7.6295" y="-356.9" font-family="Times,serif" font-size="9.00" fill="#000000">password: String</text>
<polygon fill="none" stroke="#000000" points="3,-330 3,-350 73,-350 73,-330 3,-330"/>
<text text-anchor="start" x="8" y="-336.9" font-family="Times,serif" font-size="9.00" fill="#000000">phone: String</text>
<polygon fill="none" stroke="#000000" points="3,-310 3,-330 73,-330 73,-310 3,-310"/>
<text text-anchor="start" x="8" y="-316.9" font-family="Times,serif" font-size="9.00" fill="#000000">address: String</text>
<polygon fill="none" stroke="#000000" points="3,-290 3,-310 73,-310 73,-290 3,-290"/>
<text text-anchor="start" x="8" y="-296.9" font-family="Times,serif" font-size="9.00" fill="#000000">salary: Number</text>
<polygon fill="none" stroke="#000000" points="3,-270 3,-290 73,-290 73,-270 3,-270"/>
<text text-anchor="start" x="8" y="-276.9" font-family="Times,serif" font-size="9.00" fill="#000000">role: String</text>
<polygon fill="none" stroke="#000000" points="3,-250 3,-270 73,-270 73,-250 3,-250"/>
<text text-anchor="start" x="8" y="-256.9" font-family="Times,serif" font-size="9.00" fill="#000000">_id: ObjectID</text>
<polygon fill="none" stroke="#000000" points="3,-230 3,-250 73,-250 73,-230 3,-230"/>
<text text-anchor="start" x="8" y="-236.9" font-family="Times,serif" font-size="9.00" fill="#000000">__v: Number</text>
</g>
<!-- employees&#45;&gt;orders -->
<g id="edge3" class="edge">
<title>employees:7&#45;&gt;orders:6</title>
<path fill="none" stroke="#000000" stroke-dasharray="5,2" d="M73,-260C129.6091,-260 201.5067,-435 258.1158,-435"/>
<text text-anchor="middle" x="166.8079" y="-417.2" font-family="Times,serif" font-size="14.00" fill="#000000">employees&#45;orders</text>
<text text-anchor="middle" x="253.0625" y="-422.4" font-family="Times,serif" font-size="14.00" fill="#000000">N</text>
<text text-anchor="middle" x="76.5" y="-247.4" font-family="Times,serif" font-size="14.00" fill="#000000">1</text>
</g>
<!-- orderitems -->
<g id="node4" class="node">
<title>orderitems</title>
<polygon fill="#4477c9" stroke="transparent" points="539.3536,0 539.3536,-98 614.3536,-98 614.3536,0 539.3536,0"/>
<polygon fill="#add8e6" stroke="transparent" points="539.8536,-80 539.8536,-98 614.8536,-98 614.8536,-80 539.8536,-80"/>
<polygon fill="none" stroke="#000000" points="539.8536,-80 539.8536,-98 614.8536,-98 614.8536,-80 539.8536,-80"/>
<text text-anchor="start" x="555.8607" y="-86.9" font-family="Times,serif" font-weight="bold" font-style="italic" font-size="9.00" fill="#000000"> orderitems </text>
<polygon fill="none" stroke="#000000" points="539.8536,-60 539.8536,-80 614.8536,-80 614.8536,-60 539.8536,-60"/>
<text text-anchor="start" x="544.8536" y="-66.9" font-family="Times,serif" font-size="9.00" fill="#000000">quantity: Number</text>
<polygon fill="none" stroke="#000000" points="539.8536,-40 539.8536,-60 614.8536,-60 614.8536,-40 539.8536,-40"/>
<text text-anchor="start" x="544.4906" y="-46.9" font-family="Times,serif" font-size="9.00" fill="#000000">product: ObjectID</text>
<polygon fill="none" stroke="#000000" points="539.8536,-20 539.8536,-40 614.8536,-40 614.8536,-20 539.8536,-20"/>
<text text-anchor="start" x="544.8536" y="-26.9" font-family="Times,serif" font-size="9.00" fill="#000000">_id: ObjectID</text>
<polygon fill="none" stroke="#000000" points="539.8536,0 539.8536,-20 614.8536,-20 614.8536,0 539.8536,0"/>
<text text-anchor="start" x="544.8536" y="-6.9" font-family="Times,serif" font-size="9.00" fill="#000000">__v: Number</text>
</g>
<!-- products&#45;&gt;orderitems -->
<g id="edge1" class="edge">
<title>products:7&#45;&gt;orderitems:1</title>
<path fill="none" stroke="#000000" stroke-dasharray="5,2" d="M347.1158,-50C432.777,-50 454.1924,-50 539.8536,-50"/>
<text text-anchor="middle" x="446.9847" y="-54.2" font-family="Times,serif" font-size="14.00" fill="#000000">products&#45;orderitems</text>
<text text-anchor="middle" x="534.8003" y="-37.4" font-family="Times,serif" font-size="14.00" fill="#000000">N</text>
<text text-anchor="middle" x="350.6158" y="-37.4" font-family="Times,serif" font-size="14.00" fill="#000000">1</text>
</g>
<!-- storages -->
<g id="node7" class="node">
<title>storages</title>
<polygon fill="#4477c9" stroke="transparent" points="0,-730 0,-888 76,-888 76,-730 0,-730"/>
<polygon fill="#add8e6" stroke="transparent" points="0,-870 0,-888 76,-888 76,-870 0,-870"/>
<polygon fill="none" stroke="#000000" points="0,-870 0,-888 76,-888 76,-870 0,-870"/>
<text text-anchor="start" x="21.0062" y="-876.9" font-family="Times,serif" font-weight="bold" font-style="italic" font-size="9.00" fill="#000000"> storages </text>
<polygon fill="none" stroke="#000000" points="0,-850 0,-870 76,-870 76,-850 0,-850"/>
<text text-anchor="start" x="5" y="-856.9" font-family="Times,serif" font-size="9.00" fill="#000000">name: String</text>
<polygon fill="none" stroke="#000000" points="0,-830 0,-850 76,-850 76,-830 0,-830"/>
<text text-anchor="start" x="4.6289" y="-836.9" font-family="Times,serif" font-size="9.00" fill="#000000">description: String</text>
<polygon fill="none" stroke="#000000" points="0,-810 0,-830 76,-830 76,-810 0,-810"/>
<text text-anchor="start" x="5" y="-816.9" font-family="Times,serif" font-size="9.00" fill="#000000">quantity: Number</text>
<polygon fill="none" stroke="#000000" points="0,-790 0,-810 76,-810 76,-790 0,-790"/>
<text text-anchor="start" x="5" y="-796.9" font-family="Times,serif" font-size="9.00" fill="#000000">unit: String</text>
<polygon fill="none" stroke="#000000" points="0,-770 0,-790 76,-790 76,-770 0,-770"/>
<text text-anchor="start" x="5" y="-776.9" font-family="Times,serif" font-size="9.00" fill="#000000">dateUpdate: Date</text>
<polygon fill="none" stroke="#000000" points="0,-750 0,-770 76,-770 76,-750 0,-750"/>
<text text-anchor="start" x="5" y="-756.9" font-family="Times,serif" font-size="9.00" fill="#000000">_id: ObjectID</text>
<polygon fill="none" stroke="#000000" points="0,-730 0,-750 76,-750 76,-730 0,-730"/>
<text text-anchor="start" x="5" y="-736.9" font-family="Times,serif" font-size="9.00" fill="#000000">__v: Number</text>
</g>
</g>
</svg>
